{
  "accessors": [
    {
      "bufferView": 0,
      "componentType": 5126,
      "count": 6148,
      "max": [
        17.96929168701172,
        11.038265228271484,
        24.98307991027832
      ],
      "min": [
        -15.82469654083252,
        -6.187555313110352,
        -22.115758895874023
      ],
      "type": "VEC3"
    },
    {
      "bufferView": 1,
      "componentType": 5126,
      "count": 6148,
      "type": "VEC3"
    },
    {
      "bufferView": 2,
      "componentType": 5123,
      "count": 9930,
      "type": "SCALAR"
    }
  ],
  "asset": {
    "version": "2.0"
  },
  "bufferViews": [
    {
      "buffer": 0,
      "byteLength": 73776,
      "byteOffset": 0,
      "target": 34962
    },
    {
      "buffer": 0,
      "byteLength": 73776,
      "byteOffset": 73776,
      "target": 34962
    },
    {
      "buffer": 0,
      "byteLength": 19860,
      "byteOffset": 147552,
      "target": 34963
    }
  ],
  "buffers": [
    {
      "byteLength": 167412,
      "uri": "data:application/octet-stream;base64,"
    }
  ],
  "meshes": [
    {
      "primitives": [
        {
          "attributes": {
            "NORMAL": 1,
            "POSITION": 0
          },
          "indices": 2
        }
      ]
    }
  ],
  "nodes": [
    {
      "mesh": 0
    }
  ],
  "scene": 0,
  "scenes": [
    {
      "nodes": [
        0
      ]
    }
  ]
}